<svg width="43" height="38" viewBox="0 0 43 38" fill="none" xmlns="http://www.w3.org/2000/svg">
<mask id="path-1-inside-1_60_25" fill="white">
<path d="M19.9678 0.47168C21.3978 1.5471 22.9058 2.57094 24.4658 3.43652C25.4537 4.01352 26.4943 4.53767 27.5342 5.00977C29.536 4.93106 31.5642 4.72112 33.54 4.43262C36.0099 4.06541 38.4796 3.56684 40.8975 2.91113L41.8857 2.64941L42.2236 3.64551C42.8216 5.48154 43.0815 7.37044 42.9775 9.28516C42.8995 11.095 42.4832 12.8524 41.7812 14.5049L41.7168 14.5264L39.5459 19.4365L34.8652 17.4951C35.2552 18.5443 35.5933 19.6199 35.9053 20.6953C37.3873 25.9413 38.1161 31.4238 38.0381 37.0107H29.7432C29.7432 35.5945 29.4057 34.5975 28.7559 33.9941C28.0024 33.2864 26.963 33.3642 26.8838 33.3643H11.0498C10.9718 33.3643 9.69782 33.3118 8.83984 34.0986C8.29385 34.6232 8.00781 35.4628 8.00781 36.5645V36.9844H5.97363C5.9736 36.993 5.97266 37.0021 5.97266 37.0107H0C0 33.2599 0.675968 29.613 2.00195 26.2031C2.52191 24.8918 3.12034 23.6331 3.82227 22.4004L4.1084 21.9023L4.67969 21.8496C5.79768 21.7709 7.56638 21.5342 9.56836 20.7998C12.4801 19.7506 14.8464 18.072 16.6143 15.8164C17.992 14.0592 18.9536 12.0396 19.4736 9.78418L17.1338 1.49512L19.3438 0L19.9678 0.47168ZM36.4307 8.9541C36.4905 8.95411 36.5481 8.95625 36.6035 8.95996C36.5579 8.94673 36.5007 8.94415 36.4307 8.9541Z"/>
</mask>
<path d="M19.9678 0.47168L18.7618 2.06718L18.7657 2.0701L19.9678 0.47168ZM24.4658 3.43652L25.4745 1.70951L25.4555 1.69839L25.4362 1.6877L24.4658 3.43652ZM27.5342 5.00977L26.7074 6.83088L27.1391 7.02684L27.6128 7.00822L27.5342 5.00977ZM33.54 4.43262L33.829 6.41164L33.8342 6.41087L33.54 4.43262ZM40.8975 2.91113L40.3855 0.977744L40.374 0.980857L40.8975 2.91113ZM41.8857 2.64941L43.7797 2.00694L43.1796 0.237822L41.3737 0.716059L41.8857 2.64941ZM42.2236 3.64551L44.1253 3.02615L44.1215 3.01457L44.1176 3.00303L42.2236 3.64551ZM42.9775 9.28516L40.9805 9.17671L40.9799 9.18787L40.9794 9.19904L42.9775 9.28516ZM41.7812 14.5049L42.4137 16.4023L43.2694 16.117L43.622 15.2869L41.7812 14.5049ZM41.7168 14.5264L41.0843 12.629L40.2453 12.9087L39.8876 13.7176L41.7168 14.5264ZM39.5459 19.4365L38.7797 21.2839L40.5848 22.0327L41.3751 20.2453L39.5459 19.4365ZM34.8652 17.4951L35.6315 15.6477L31.3911 13.8889L32.9906 18.192L34.8652 17.4951ZM35.9053 20.6953L37.83 20.1516L37.8261 20.1381L35.9053 20.6953ZM38.0381 37.0107V39.0107H40.0104L40.0379 37.0387L38.0381 37.0107ZM29.7432 37.0107H27.7432V39.0107H29.7432V37.0107ZM28.7559 33.9941L27.3866 35.4519L27.3951 35.4598L28.7559 33.9941ZM26.8838 33.3643V35.3643H26.8864L26.8838 33.3643ZM11.0498 33.3643L11.0498 35.3643H11.0498V33.3643ZM8.83984 34.0986L7.4881 32.6246L7.47095 32.6403L7.45417 32.6564L8.83984 34.0986ZM8.00781 36.9844V38.9844H10.0078V36.9844H8.00781ZM5.97363 36.9844V34.9844H3.98042L3.97364 36.9776L5.97363 36.9844ZM5.97266 37.0107V39.0107H7.97266V37.0107H5.97266ZM0 37.0107H-2V39.0107H0V37.0107ZM2.00195 26.2031L0.142727 25.4659L0.137929 25.4783L2.00195 26.2031ZM3.82227 22.4004L2.08807 21.4041L2.08428 21.4107L3.82227 22.4004ZM4.1084 21.9023L3.92456 19.9108L2.89119 20.0062L2.37422 20.906L4.1084 21.9023ZM4.67969 21.8496L4.53927 19.8545L4.51754 19.8561L4.49585 19.8581L4.67969 21.8496ZM9.56836 20.7998L8.89034 18.9182L8.87954 18.9222L9.56836 20.7998ZM16.6143 15.8164L15.0404 14.5824L15.0401 14.5827L16.6143 15.8164ZM19.4736 9.78418L21.4225 10.2335L21.5376 9.73408L21.3984 9.24085L19.4736 9.78418ZM17.1338 1.49512L16.0131 -0.1614L14.8165 0.648113L15.209 2.03845L17.1338 1.49512ZM19.3438 0L20.5497 -1.59549L19.4082 -2.45833L18.2231 -1.65652L19.3438 0ZM36.4307 8.9541L36.1492 6.97401L36.4305 10.9541L36.4307 8.9541ZM36.6035 8.95996L36.4702 10.9555L37.1609 7.03919L36.6035 8.95996ZM19.9678 0.47168L18.7657 2.0701C20.2451 3.18273 21.8321 4.26241 23.4955 5.18535L24.4658 3.43652L25.4362 1.6877C23.9796 0.879466 22.5504 -0.0885285 21.1699 -1.12674L19.9678 0.47168ZM24.4658 3.43652L23.4571 5.16354C24.5159 5.7819 25.6192 6.33684 26.7074 6.83088L27.5342 5.00977L28.3609 3.18865C27.3694 2.7385 26.3916 2.24515 25.4745 1.70951L24.4658 3.43652ZM27.5342 5.00977L27.6128 7.00822C29.6989 6.9262 31.7988 6.70808 33.829 6.41163L33.54 4.43262L33.2511 2.4536C31.3297 2.73416 29.3731 2.93592 27.4556 3.01131L27.5342 5.00977ZM33.54 4.43262L33.8342 6.41087C36.3719 6.03357 38.919 5.51994 41.4209 4.84141L40.8975 2.91113L40.374 0.980857C38.0403 1.61374 35.6479 2.09724 33.2459 2.45436L33.54 4.43262ZM40.8975 2.91113L41.4095 4.84449L42.3977 4.58277L41.8857 2.64941L41.3737 0.716059L40.3855 0.977778L40.8975 2.91113ZM41.8857 2.64941L39.9917 3.29189L40.3296 4.28798L42.2236 3.64551L44.1176 3.00303L43.7797 2.00694L41.8857 2.64941ZM42.2236 3.64551L40.3219 4.26486C40.8465 5.87551 41.0706 7.51794 40.9805 9.17671L42.9775 9.28516L44.9746 9.3936C45.0925 7.22294 44.7967 5.08757 44.1253 3.02615L42.2236 3.64551ZM42.9775 9.28516L40.9794 9.19904C40.9123 10.7567 40.5538 12.2791 39.9405 13.7229L41.7812 14.5049L43.622 15.2869C44.4127 13.4258 44.8868 11.4333 44.9757 9.37127L42.9775 9.28516ZM41.7812 14.5049L41.1488 12.6075L41.0843 12.629L41.7168 14.5264L42.3493 16.4237L42.4137 16.4023L41.7812 14.5049ZM41.7168 14.5264L39.8876 13.7176L37.7167 18.6278L39.5459 19.4365L41.3751 20.2453L43.546 15.3351L41.7168 14.5264ZM39.5459 19.4365L40.3121 17.5891L35.6315 15.6477L34.8652 17.4951L34.099 19.3425L38.7797 21.2839L39.5459 19.4365ZM34.8652 17.4951L32.9906 18.192C33.3573 19.1787 33.6801 20.2036 33.9845 21.2526L35.9053 20.6953L37.8261 20.1381C37.5064 19.0363 37.1531 17.9099 36.7399 16.7983L34.8652 17.4951ZM35.9053 20.6953L33.9806 21.239C35.41 26.2987 36.1136 31.5886 36.0383 36.9828L38.0381 37.0107L40.0379 37.0387C40.1186 31.2589 39.3646 25.5839 37.8299 20.1516L35.9053 20.6953ZM38.0381 37.0107V35.0107H29.7432V37.0107V39.0107H38.0381V37.0107ZM29.7432 37.0107H31.7432C31.7432 35.3354 31.35 33.6735 30.1166 32.5284L28.7559 33.9941L27.3951 35.4598C27.4614 35.5214 27.7432 35.8537 27.7432 37.0107H29.7432ZM28.7559 33.9941L30.1251 32.5364C28.7011 31.1988 26.8024 31.3644 26.8812 31.3643L26.8838 33.3643L26.8864 35.3643C26.9201 35.3642 26.9487 35.3633 26.9536 35.3632C26.9623 35.3629 26.9733 35.3625 26.9758 35.3624C26.985 35.3621 26.9905 35.362 26.9963 35.3619C27.0071 35.3616 27.0222 35.3615 27.0414 35.3621C27.082 35.3634 27.1362 35.3677 27.1943 35.3787C27.3241 35.4033 27.375 35.441 27.3866 35.4519L28.7559 33.9941ZM26.8838 33.3643V31.3643H11.0498V33.3643V35.3643H26.8838V33.3643ZM11.0498 33.3643L11.0499 31.3643C11.0864 31.3643 10.9016 31.3601 10.6897 31.371C10.4732 31.3821 10.1831 31.4091 9.8531 31.4736C9.21955 31.5977 8.28935 31.8898 7.4881 32.6246L8.83984 34.0986L10.1916 35.5727C10.2483 35.5207 10.3841 35.4456 10.6215 35.3991C10.727 35.3785 10.8237 35.3694 10.8947 35.3657C10.9705 35.3618 10.9742 35.3643 11.0498 35.3643L11.0498 33.3643ZM8.83984 34.0986L7.45417 32.6564C6.37027 33.6979 6.00781 35.16 6.00781 36.5645H8.00781H10.0078C10.0078 35.7656 10.2174 35.5486 10.2255 35.5408L8.83984 34.0986ZM8.00781 36.5645H6.00781V36.9844H8.00781H10.0078V36.5645H8.00781ZM8.00781 36.9844V34.9844H5.97363V36.9844V38.9844H8.00781V36.9844ZM5.97363 36.9844L3.97364 36.9776C3.97375 36.9453 3.97468 36.9199 3.97525 36.9064C3.97555 36.8994 3.97582 36.894 3.97596 36.8913C3.97607 36.8891 3.97618 36.8871 3.97607 36.8892C3.97602 36.8901 3.97578 36.8946 3.97551 36.8998C3.97523 36.9053 3.97484 36.9135 3.97444 36.9233C3.97367 36.9424 3.97266 36.9731 3.97266 37.0107H5.97266H7.97266C7.97266 37.0278 7.97242 37.0426 7.97214 37.0549C7.97185 37.0671 7.97148 37.0774 7.97117 37.085C7.97086 37.0927 7.97057 37.0986 7.9704 37.1019C7.97025 37.1049 7.97013 37.1071 7.9702 37.1059C7.97021 37.1057 7.97043 37.1015 7.97066 37.0971C7.97091 37.0922 7.97129 37.0846 7.97168 37.0754C7.97208 37.0661 7.97252 37.0542 7.97289 37.0403C7.97325 37.0265 7.97356 37.0099 7.97362 36.9912L5.97363 36.9844ZM5.97266 37.0107V35.0107H0V37.0107V39.0107H5.97266V37.0107ZM0 37.0107H2C2 33.5017 2.63205 30.1011 3.86598 26.928L2.00195 26.2031L0.137929 25.4783C-1.28012 29.1249 -2 33.0181 -2 37.0107H0ZM2.00195 26.2031L3.86114 26.9403C4.34841 25.7114 4.90689 24.5374 5.56025 23.39L3.82227 22.4004L2.08428 21.4107C1.3338 22.7287 0.695411 24.0722 0.142768 25.4659L2.00195 26.2031ZM3.82227 22.4004L5.55645 23.3967L5.84258 22.8986L4.1084 21.9023L2.37422 20.906L2.08809 21.4041L3.82227 22.4004ZM4.1084 21.9023L4.29223 23.8939L4.86352 23.8411L4.67969 21.8496L4.49585 19.8581L3.92456 19.9108L4.1084 21.9023ZM4.67969 21.8496L4.82011 23.8447C6.06783 23.7569 8.03172 23.4939 10.2572 22.6774L9.56836 20.7998L8.87954 18.9222C7.10104 19.5746 5.52752 19.785 4.53927 19.8545L4.67969 21.8496ZM9.56836 20.7998L10.2464 22.6814C13.4852 21.5143 16.1718 19.6231 18.1884 17.0501L16.6143 15.8164L15.0401 14.5827C13.521 16.521 11.475 17.9869 8.89036 18.9182L9.56836 20.7998ZM16.6143 15.8164L18.1882 17.0504C19.7515 15.0566 20.8383 12.7676 21.4225 10.2335L19.4736 9.78418L17.5248 9.33487C17.069 11.3116 16.2326 13.0618 15.0404 14.5824L16.6143 15.8164ZM19.4736 9.78418L21.3984 9.24085L19.0586 0.951788L17.1338 1.49512L15.209 2.03845L17.5488 10.3275L19.4736 9.78418ZM17.1338 1.49512L18.2545 3.15163L20.4644 1.65652L19.3438 0L18.2231 -1.65652L16.0131 -0.1614L17.1338 1.49512ZM19.3438 0L18.1378 1.59549L18.7618 2.06717L19.9678 0.47168L21.1738 -1.12381L20.5497 -1.59549L19.3438 0ZM36.4307 8.9541L36.4305 10.9541C36.4424 10.9541 36.4554 10.9545 36.4702 10.9555L36.6035 8.95996L36.7369 6.96441C36.6407 6.95799 36.5385 6.95411 36.4308 6.9541L36.4307 8.9541ZM36.6035 8.95996L37.1609 7.03919C36.7611 6.9232 36.401 6.93821 36.1492 6.97401L36.4307 8.9541L36.7122 10.9342C36.6004 10.9501 36.3547 10.9703 36.0462 10.8807L36.6035 8.95996Z" fill="black" mask="url(#path-1-inside-1_60_25)"/>
</svg>
