<svg width="48" height="42" viewBox="0 0 48 42" fill="none" xmlns="http://www.w3.org/2000/svg">
    <path d="M2.43793 41.3139H0C0 37.1269 0.754598 33.057 2.23477 29.2506C2.81523 27.7866 3.48276 26.3812 4.26638 25.005L4.58564 24.4487L5.22414 24.3901C6.47213 24.3023 8.4457 24.0388 10.6805 23.219C13.931 22.0478 16.5721 20.1738 18.5457 17.6558C20.0839 15.694 21.1578 13.4395 21.7382 10.9214L19.1262 1.66895L21.5931 0L22.2897 0.527038C23.8859 1.72751 25.5693 2.86943 27.3106 3.83567C28.4135 4.47982 29.5744 5.06542 30.7354 5.59246C32.9701 5.50462 35.2339 5.27038 37.4397 4.9483C40.1969 4.53838 42.9541 3.98206 45.6532 3.25007L46.7561 2.95727L47.1334 4.0699C47.8009 6.1195 48.0911 8.22765 47.975 10.3651C47.888 12.3854 47.4236 14.3471 46.64 16.1918L44.4052 15.2255C45.0727 13.6444 45.45 11.9462 45.5371 10.2187C45.6242 8.78397 45.4791 7.34925 45.1308 5.94382C42.7219 6.5587 40.2549 7.05645 37.788 7.40781C35.4081 7.75917 32.9701 7.96413 30.5322 8.08125H30.242L29.9808 7.96413C28.6747 7.34925 27.3687 6.70509 26.0917 5.9731C24.7566 5.21182 23.4216 4.3627 22.1446 3.45503L24.2923 10.8628L24.2342 11.1556C23.5667 14.1715 22.3187 16.8652 20.4902 19.1783C18.2265 22.077 15.2081 24.1852 11.5221 25.5321C9.37443 26.2933 7.45891 26.6447 6.06581 26.7911C5.48535 27.8745 4.96294 29.0164 4.49857 30.1583C3.13449 33.6719 2.43793 37.4197 2.43793 41.3139Z" fill="black"/>
    <path d="M8.93903 41.3139V40.8162C8.93903 39.5864 9.25829 38.6495 9.86777 38.0639C10.8255 37.1855 12.2477 37.244 12.3347 37.244H12.3637H29.8646H29.9227H30.0097C30.0968 37.244 31.2577 37.1562 32.0994 37.9467C32.825 38.6202 33.2023 39.7328 33.2023 41.3139H35.6402C35.6402 39.0008 34.9727 37.244 33.6957 36.0728C32.1574 34.6967 30.2709 34.7552 29.8066 34.7845H12.5089C12.0735 34.7552 9.89679 34.726 8.24248 36.2192C7.08156 37.2733 6.5011 38.8251 6.5011 40.7869V41.2846H8.93903V41.3139Z" fill="black"/>
    <path d="M37.7299 23.8046C39.3552 29.4263 40.1098 35.3116 40.0227 41.3139H42.4607C42.5477 35.0773 41.7351 28.9578 40.0808 23.1018C39.7325 21.9014 39.3552 20.7009 38.9198 19.5297L44.144 21.6964L45.0727 19.4126L37.875 16.426L35.9885 18.6806L36.2497 19.354C36.8012 20.818 37.2946 22.3113 37.7299 23.8046Z" fill="black"/>
</svg>
